<?xml version="1.0" encoding="UTF-8" standalone="no"?>
<!-- Created with Inkscape (http://www.inkscape.org/) -->

<svg
   version="1.1"
   id="svg1"
   width="900"
   height="900"
   viewBox="0 0 900 900"
   sodipodi:docname="logo-ninetees.svg"
   inkscape:version="1.4.2 (f4327f4, 2025-05-13)"
   xmlns:inkscape="http://www.inkscape.org/namespaces/inkscape"
   xmlns:sodipodi="http://sodipodi.sourceforge.net/DTD/sodipodi-0.dtd"
   xmlns="http://www.w3.org/2000/svg"
   xmlns:svg="http://www.w3.org/2000/svg">
  <defs
     id="defs1">
    <clipPath
       clipPathUnits="userSpaceOnUse"
       id="clipPath50">
      <path
         id="path51"
         style="fill:#ff0000;fill-opacity:1;fill-rule:nonzero;stroke:none"
         d="M 22.503906,171.31836 V 549.98828 H 344.76172 V 171.31836 Z m 170.710934,107.3125 c 0.34671,-0.006 0.69306,0.003 1.03907,0.008 2.39621,0.0369 3.63548,0.24499 6.09375,0.52344 0.72395,0.1195 1.44936,0.22614 2.17382,0.3418 2.10029,-0.14831 3.55115,-0.23483 6.20704,-0.16407 2.48295,0.0662 4.92685,0.31054 7.38281,0.66211 2.5981,0.37193 3.15676,0.54346 5.65234,1.09961 3.84326,0.93335 7.55882,2.3287 11.17188,3.92578 0.68516,0.30286 1.36181,0.62378 2.04297,0.93555 2.19128,1.13436 4.39918,2.33337 6.28125,3.95313 0.69817,0.60086 1.36211,1.24305 1.98046,1.92578 1.42406,1.57235 1.74996,2.27609 2.83985,4.04492 1.03899,1.88153 1.7768,3.88306 2.25195,5.97656 0.36609,1.61299 0.5145,3.25489 0.65235,4.89844 0.18861,2.25554 0.0245,4.51223 -0.14844,6.76172 -0.16115,1.61374 -0.2629,3.23077 -0.3086,4.85156 -0.004,1.72448 -0.2038,3.46434 -0.85937,5.07422 -0.18512,0.4546 -0.42178,0.88692 -0.63281,1.33008 -0.99642,1.83529 -2.50411,3.27106 -4.08594,4.5957 -0.60985,0.528 -1.25695,1.0012 -1.92969,1.4375 -0.22569,0.25381 -0.45523,0.49761 -0.63086,0.67578 -1.00658,1.02111 -2.11206,1.93732 -3.27734,2.77149 -1.47686,0.99532 -1.83973,1.27571 -3.45313,2.19531 -3.48803,1.98809 -7.18666,3.56994 -10.89453,5.09375 -1.6544,0.6646 -3.31108,1.32646 -4.97265,1.97461 -0.30092,0.44759 -0.72542,0.96102 -1.29102,1.55078 -1.21169,1.26343 -2.64061,2.29024 -4.07617,3.28125 -1.46391,0.97233 -2.99004,1.8797 -4.61914,2.55078 -0.38556,0.15882 -0.7782,0.29713 -1.16797,0.44531 -2.45251,0.87849 -5.06138,1.03787 -7.63672,1.21094 -2.50767,0.15036 -5.01898,0.22081 -7.52734,0.35742 -1.57373,0.0952 -3.14687,0.17917 -4.72266,0.23047 -1.62845,0.052 -3.26285,0.0251 -4.88281,-0.16211 -0.43234,-0.05 -0.86362,-0.11748 -1.29492,-0.17578 -2.42174,-0.42531 -4.84078,-0.88466 -7.23633,-1.44141 -1.17014,-0.27195 -2.30488,-0.56296 -3.45313,-0.86132 -0.76784,-0.0196 -1.26713,-0.0453 -2.35937,-0.0918 -2.61361,-0.0981 -5.20231,-0.4722 -7.76563,-0.97461 -1.4263,-0.2991 -2.8203,-0.72445 -4.1582,-1.30274 -0.6527,-0.28211 -0.87654,-0.411 -1.50586,-0.73632 -0.64097,-0.34886 -1.28602,-0.7054 -1.86719,-1.15039 -0.29816,-0.22828 -0.61347,-0.44372 -0.86914,-0.71875 -0.48742,-0.52435 -1.13724,-0.98491 -1.35156,-1.66797 -0.27843,-0.88738 -0.4142,-1.80849 -0.51953,-2.73633 -0.0164,-0.011 -0.0322,-0.0221 -0.0488,-0.0332 -2.02477,-1.40445 -4.00074,-2.89687 -5.80273,-4.58204 -1.53286,-1.11122 -2.99761,-2.3205 -4.20508,-3.79101 -0.55293,-0.73465 -0.99963,-1.27104 -1.43164,-2.09961 -0.28032,-0.53765 -0.53208,-1.09163 -0.74805,-1.6582 -0.40789,-1.07007 -0.55645,-2.22765 -0.67969,-3.35742 -0.034,-0.45187 -0.0603,-0.90331 -0.0801,-1.35547 -0.29593,-0.59683 -0.52942,-1.25655 -0.74414,-2.0293 -0.39847,-1.43384 -0.21437,-2.96104 0.01,-4.39844 0.21746,-0.95462 0.25073,-1.20452 0.56055,-2.13867 0.46789,-1.41078 1.11766,-2.75266 1.89257,-4.01953 0.91156,-1.44 1.89472,-2.8339 2.76954,-4.29688 0.33367,-0.58791 0.67303,-1.17114 1.00195,-1.76171 0.77332,-1.38854 1.46265,-2.82546 2.29101,-4.1836 0.61398,-1.00868 0.93723,-1.57946 1.63868,-2.55664 1.35716,-1.89066 2.96873,-3.57081 4.79687,-5.01172 0.45839,-0.34955 0.90938,-0.70897 1.375,-1.04883 2.60424,-1.90087 5.41302,-3.4952 8.31055,-4.90234 1.77903,-0.84485 2.41867,-1.17647 4.26562,-1.93945 1.24558,-0.51455 2.50504,-0.99134 3.77735,-1.4336 0.77711,-0.76848 1.56159,-1.53344 2.43359,-2.19336 0.30266,-0.22905 0.62384,-0.43379 0.93555,-0.65039 1.27154,-0.88357 2.22397,-1.28039 2.92969,-1.30664 1.01887,-0.0379 1.52137,0.69744 1.72265,1.85547 0.27549,-0.0643 0.54207,-0.12625 0.80664,-0.18555 -0.42946,-0.98157 -0.95868,-1.73481 -0.66211,-1.76562 0.006,-5.9e-4 0.0113,6e-5 0.0176,0 0.18587,-0.002 0.64196,0.23089 1.53516,0.78711 0.26014,0.162 0.5364,0.30205 0.78125,0.48633 0.0492,0.037 0.0998,0.075 0.15039,0.11523 0.31173,-0.0587 0.64324,-0.11747 1.00586,-0.17969 3.09225,-0.53056 6.22413,-0.78908 9.35937,-0.84179 0.0597,-0.42582 0.11973,-0.86817 0.18164,-1.32813 0.11652,-0.86567 1.68292,-0.49056 2.54688,-0.61914 0.34227,-0.0509 0.68845,-0.0701 1.03515,-0.0762 z" />
    </clipPath>
    <clipPath
       clipPathUnits="userSpaceOnUse"
       id="clipPath54">
      <path
         id="path54"
         style="fill:#ff0000;fill-opacity:1;fill-rule:nonzero;stroke:none"
         d="M 355.51758,172.43164 V 553.71289 H 709.4375 V 172.43164 Z m 207.37695,98.03516 c 1.64158,-0.009 3.28093,0.085 4.9082,0.32812 0.7784,0.11629 1.54681,0.29031 2.32032,0.43555 4.18587,1.03469 7.99391,3.05594 11.24804,5.87305 0.61871,0.53562 1.17938,1.13229 1.76953,1.69921 2.27427,2.28183 4.12327,4.91362 5.83204,7.63086 1.66374,2.72804 3.08195,5.59389 4.56836,8.41993 1.14503,2.21943 2.43183,4.36018 3.71679,6.5 0.65184,1.20892 1.5185,2.25493 2.3711,3.32031 0.42524,0.39239 1.13892,1.32592 1.43359,1.71289 0.95404,1.25284 1.54903,2.13547 2.33789,3.58398 0.35473,0.65136 0.64068,1.33884 0.96094,2.00782 0.94058,2.24173 1.53594,4.60289 2.05469,6.9707 0.34488,1.90389 0.11397,0.57306 0.39648,2.35742 0.008,0.048 0.0158,0.0965 0.0234,0.14453 h 0.002 v 0.002 h 0.002 0.002 c 0.003,0.002 0.009,0.007 0.0137,0.0117 0.085,0.0896 0.0679,0.23661 0.10156,0.35547 0.78098,2.57023 1.10322,5.23665 1.31445,7.9043 0.0304,2.18129 0.39307,4.32791 0.69141,6.48242 0.33972,2.46217 0.619,4.93127 0.82422,7.4082 0.29883,3.57131 -0.23898,7.09533 -1.08203,10.55274 -0.64536,2.30992 -1.46462,4.56761 -2.27344,6.82422 -0.83226,2.47115 -1.82622,4.87783 -2.96484,7.22265 -0.51041,1.04525 -0.99927,2.10057 -1.4961,3.15235 0.13943,-0.22292 0.20648,-0.32577 0.22461,-0.34571 l 0.002,-0.002 0.002,-0.002 h 0.002 v 0.002 l -0.002,0.002 c -0.0177,0.0496 -0.18921,0.35856 -0.35547,0.66016 -0.0449,0.16254 -0.12417,0.31796 -0.17773,0.47852 -0.10496,0.31469 -0.2135,0.62734 -0.32032,0.9414 -0.41459,1.38298 -0.78118,2.78101 -1.17578,4.16992 -0.60019,2.27391 -1.32322,4.51144 -2.14844,6.7129 -0.72686,1.75645 -1.47238,3.50422 -2.25976,5.23437 -0.77369,1.859 -1.68958,3.65121 -2.65234,5.41797 -1.19866,2.27649 -2.77921,4.3025 -4.41797,6.27148 -0.97638,1.10434 -1.55405,1.85688 -2.20313,2.68164 -0.82584,1.04944 -1.63241,1.98473 -2.47656,2.97852 -0.69251,0.92705 -1.47935,1.78033 -2.22461,2.66406 -0.0644,0.0764 0.13843,-0.14419 0.20703,-0.2168 -1.22243,1.45563 -1.34608,1.65485 -2.28125,2.88477 -0.87374,1.08542 -1.78766,2.13619 -2.63281,3.24414 -1.30038,1.6342 -1.43185,1.85013 -2.52735,3.29688 -1.13749,1.46098 -2.27773,2.91791 -3.4375,4.36132 -1.52033,1.87696 -3.16654,3.64073 -4.89648,5.32422 -0.81887,0.70267 -1.60703,1.44227 -2.45313,2.11328 -0.33617,0.26662 -0.94749,0.66631 -1.34765,1.04883 -1.08783,0.85251 -1.76455,1.32785 -2.68164,2.04883 -0.5556,0.43025 -1.07043,0.89737 -1.58985,1.36523 -0.0452,0.0481 -0.35477,0.36695 -0.27929,0.28711 0.0474,-0.0501 0.091,-0.0967 0.13086,-0.13867 -1.68553,1.70496 -0.8483,0.92515 -2.28711,2.21094 -1.90651,1.73046 -4.0516,3.04499 -6.51367,4.37305 -1.44351,0.71655 -2.89412,1.42 -4.35547,2.09961 -2.04788,0.93616 -4.14553,1.74191 -6.26172,2.50781 -1.8587,0.71008 -3.77648,1.23506 -5.68555,1.78711 -2.47705,0.73831 -4.99896,1.30232 -7.51953,1.86719 -2.17351,0.48436 -4.35095,0.9376 -6.55273,1.27343 -2.0813,0.2989 -4.1804,0.44357 -6.2793,0.54297 -1.52735,0.0467 -3.05836,0.1413 -4.58594,0.0332 -0.7514,-0.0532 -1.49709,-0.16209 -2.24609,-0.24219 -2.74641,-0.38397 -5.34863,-1.33692 -7.90821,-2.36133 -2.04561,-0.81988 -4.00812,-1.81365 -5.92187,-2.90234 0.0133,0.0112 0.0454,0.0363 0.0547,0.0449 -1.04699,-0.52445 -2.07903,-1.08607 -3.11328,-1.63477 -1.03423,-0.61215 -2.05186,-1.13389 -3.14649,-1.70508 -0.48205,-0.2766 -0.9709,-0.54058 -1.44531,-0.83007 -0.55121,-0.33636 -1.08846,-0.69643 -1.62305,-1.0586 -0.21435,-0.14521 -0.42633,-0.29416 -0.64062,-0.43945 -0.0592,-0.0401 -0.20075,-0.15227 -0.23242,-0.16602 l -0.002,-0.002 h -0.002 -0.002 v 0.002 0.002 c 0.002,0.003 0.006,0.009 0.01,0.0137 0.0617,0.0763 0.16159,0.11021 0.24219,0.16601 0.0131,0.0101 0.0434,0.0354 0.0527,0.043 -1.2195,-0.71457 -2.41595,-1.46576 -3.60937,-2.22265 -2.26724,-1.38195 -4.30209,-3.08062 -6.23828,-4.88672 -1.2029,-1.10652 -2.36733,-2.42368 -3.36719,-3.57813 -0.7022,-0.78898 -1.00919,-1.12559 -1.85742,-2.10547 -0.40504,-0.33433 -0.75633,-0.72919 -1.13282,-1.0957 -2.2202,-2.15845 -3.88448,-4.76722 -5.30468,-7.49805 -0.78624,-1.42611 -1.32288,-2.96728 -2.00782,-4.43945 -0.44128,-0.89379 -0.88784,-1.78589 -1.35351,-2.66797 -0.58427,-1.06341 -1.43239,-2.77681 -2.1875,-4.50195 -0.86837,-1.98496 -1.61653,-4.02074 -2.37305,-6.05078 -0.55838,-1.45731 -1.07664,-2.68011 -1.65039,-4.28516 -0.88896,-2.65053 -1.24505,-5.4228 -1.45117,-8.19726 -0.10502,-1.61147 -0.12868,-3.22748 -0.14648,-4.8418 -0.0482,-2.27296 0.17252,-4.5387 0.52343,-6.78125 0.1597,-1.07079 0.31348,-2.1417 0.48828,-3.21094 0.0478,-0.62836 0.10401,-1.25493 0.16211,-1.88281 0.12117,-1.52271 0.34773,-3.03296 0.51368,-4.55078 0.1703,-2.2345 0.61952,-4.4357 1.10546,-6.61914 0.39294,-1.95288 0.92585,-3.875 1.43946,-5.79883 0.56939,-1.82587 1.1411,-3.65328 1.76758,-5.46094 0.47016,-1.26285 0.88195,-2.53679 1.27148,-3.82422 0.59155,-1.85056 1.199,-3.69571 1.75781,-5.55664 0.56323,-1.93589 1.27034,-3.82559 1.89258,-5.74219 0.66738,-1.94546 1.4373,-3.85192 2.28125,-5.72656 0.81314,-1.73253 1.70651,-3.4268 2.52148,-5.1582 1.03194,-2.14215 1.93177,-4.34185 2.9375,-6.49609 1.03348,-2.19273 2.22431,-4.30511 3.48633,-6.37305 1.13906,-1.73254 2.0284,-2.98576 3.26367,-4.59766 0.70875,-0.82822 1.46232,-1.61857 2.25586,-2.36328 -1.3622,0.84844 -2.9266,2.08966 -4.7207,3.7832 -0.0571,0.0539 -0.0993,0.13221 -0.17187,0.16211 l -0.002,0.002 h -0.002 l -0.002,0.002 h -0.002 -0.002 l -0.002,-0.002 v -0.002 -0.002 l 0.002,-0.002 c 0.0156,-0.026 0.087,-0.0974 0.11328,-0.12891 0.15699,-0.18792 0.31764,-0.37231 0.47656,-0.55859 0.22682,-0.26587 0.39223,-0.45855 0.50977,-0.59375 h -0.002 v -0.002 c 0.006,-0.0234 0.0751,-0.13292 0.26758,-0.39648 0.50861,-0.64363 0.84519,-1.36764 1.27343,-2.11523 1.21164,-2.24008 2.77353,-4.25196 4.44531,-6.16211 1.3428,-1.57458 2.82219,-3.02967 4.31836,-4.45704 2.2217,-2.03067 4.69487,-3.80692 7.36329,-5.20703 0.69232,-0.36325 1.40552,-0.68883 2.10742,-1.0332 5.07558,-2.16112 10.45866,-3.48902 15.80078,-4.80664 5.4872,-1.41016 11.04808,-2.47817 16.60156,-3.58203 2.4035,-0.54815 4.82021,-1.05733 7.17578,-1.79102 3.92274,-1.20608 7.84393,-2.41662 11.79102,-3.54101 4.45358,-1.33876 9.00094,-2.24349 13.61719,-2.76953 1.63088,-0.17129 3.27443,-0.28369 4.91601,-0.29297 z m -4.89648,164.38476 c 0.0454,-0.046 0.0914,-0.0929 0.14062,-0.14258 -0.01,0.009 -0.0213,0.0164 -0.0312,0.0254 -0.0333,0.0349 -0.0686,0.0742 -0.10937,0.11718 z m 48.85742,-113.27734 c 0.009,0.0543 0.0205,0.10813 0.0312,0.16211 1.8e-4,9.2e-4 -3.4e-4,0.003 0,0.004 0.003,0.008 0.01,0.0201 0.0137,0.0254 l 0.002,0.002 v 0.002 h 0.002 v -0.002 c -0.005,-0.0453 -0.0296,-0.12546 -0.0488,-0.19336 z m -5.13867,50.3418 c -0.10845,0.19912 -0.19483,0.36053 -0.20118,0.39257 v 0.002 0.002 0.002 h 0.002 c 0.004,-0.002 0.0108,-0.009 0.0195,-0.0195 0.0615,-0.076 0.12548,-0.22655 0.17969,-0.3789 z" />
    </clipPath>
  </defs>
  <sodipodi:namedview
     id="namedview1"
     pagecolor="#ffffff"
     bordercolor="#111111"
     borderopacity="1"
     inkscape:showpageshadow="0"
     inkscape:pageopacity="0"
     inkscape:pagecheckerboard="1"
     inkscape:deskcolor="#d1d1d1"
     showgrid="false"
     inkscape:zoom="1.03"
     inkscape:cx="314.56311"
     inkscape:cy="462.62136"
     inkscape:window-width="2400"
     inkscape:window-height="1261"
     inkscape:window-x="-9"
     inkscape:window-y="-9"
     inkscape:window-maximized="1"
     inkscape:current-layer="layer2" />
  <g
     inkscape:groupmode="layer"
     id="layer2"
     inkscape:label="Logo Vectorizado">
    <path
       style="opacity:1;fill:#ffffff;fill-opacity:1;stroke:#000000"
       d="M 109.40907,201.79896 204.8381,172.6232 c 63.89933,-5.49109 109.77657,16.78159 131.29088,76.58635 14.27657,51.79823 8.17443,101.15102 -6.07828,149.52574 C 290.17631,492.4983 226.08299,516.15386 165.32926,549.47667 109.78387,544.56848 60.62078,534.50535 34.646206,505.71304 L 23.097471,477.14512 92.997711,413.32316 195.72067,426.08755 C 110.58165,419.62428 27.134251,411.59671 46.194942,308.77671 58.046067,261.59215 79.219954,226.06103 109.40907,201.79896 Z"
       id="path11"
       sodipodi:nodetypes="ccccccccccc"
       inkscape:label="9 base"
       clip-path="url(#clipPath50)" />
    <path
       id="path9-8"
       style="fill:#000000;fill-opacity:1;stroke:#000000"
       inkscape:label="9 "
       d="m 215.01758,168.98047 c -28.95955,0.50731 -57.06915,7.25446 -82.77735,18.60937 -32.971953,13.18958 -58.562676,37.00148 -75.429683,73.4961 -14.944612,35.05435 -17.242929,65.27156 -12.837891,94.15429 5.055883,33.15016 15.479601,50.51555 37.980469,68.52539 l -65.130859,52.69336 -0.199219,22.0918 c 25.642253,35.04901 60.393692,60.9275 101.433593,62.75 41.30365,0.0317 87.23097,-1.37905 130.01367,-32.44922 62.75079,-50.27759 77.681,-94.22075 89.82813,-140.54492 7.15845,-42.00893 17.98329,-101.73251 4.94336,-133.23828 -8.61359,-50.23165 -60.17141,-82.88095 -98.63868,-84.45508 -9.78459,-1.27836 -19.53236,-1.80192 -29.18554,-1.63281 z m 0.9043,8.08203 c 9.45171,-0.10866 19.065,0.45601 28.8496,1.73438 38.27802,4.53324 68.72043,22.92669 85.95899,64.68359 13.03993,31.50577 12.31665,70.1688 5.1582,112.17773 -12.14713,46.32417 -24.06952,92.63062 -86.82031,142.90821 -42.7827,31.07017 -80.97369,35.27582 -122.27734,35.24414 -41.039907,-1.8225 -74.715173,-19.53498 -100.357426,-54.58399 l 71.77539,-57.16406 c 19.337816,25.8779 26.396016,29.03178 53.724606,32.45117 22.78838,-1.82777 37.54313,-7.43615 48.17969,-14.98242 15.73369,-11.16252 24.28003,-25.65504 32.83789,-40.24805 l -3.86719,-3.4375 c -26.48683,13.57023 -43.67333,17.1925 -72.63671,18.26563 -47.36406,-4.04022 -97.474043,-10.12986 -106.250004,-78.24219 -1.113998,-30.79232 -1.559214,-24.62911 10.833984,-65.52539 16.867007,-36.49462 40.95382,-62.02526 73.92578,-75.21484 25.7082,-11.35492 52.6097,-17.74042 80.96485,-18.06641 z"
       sodipodi:nodetypes="sccsccccccccssccccccccsccccccs" />
    <path
       id="path5"
       style="opacity:1;fill:#000000;fill-opacity:1;stroke:#000000"
       inkscape:label="Circulo interior 9"
       d="m 201.14648,256.58984 c -36.95277,-1.42051 -67.35682,30.28074 -65.9746,64.47071 1.13909,28.17612 25.32147,37.23801 55.87304,34.91992 19.7841,-1.50111 33.6849,-10.90612 44.30274,-18.25586 6.39761,-4.42847 12.31967,-11.49033 15.33203,-19.62305 1.42068,-3.83553 0.0571,-18.80305 -2.79297,-27.01953 -3.27908,-9.45334 -5.8675,-32.92099 -46.74024,-34.49219 z m 1.56446,27.25782 c 7.8151,0.2121 16.20732,1.65618 22.38281,5.46093 9.10263,5.60818 17.81938,14.68366 18.16211,26.59766 0.058,2.01485 -3.27641,6.32662 -6.69922,9.94727 -3.48904,3.69071 -6.74525,6.83213 -11.47266,10.08203 -13.15905,9.04632 -23.72581,11.20716 -36.50976,12.09375 -14.17327,0.98294 -27.62206,-0.81212 -35.69727,-7.45508 -4.25555,-3.50077 -7.68135,-7.59126 -9.09375,-12.07031 -1.01108,-3.20639 -0.9895,-6.61174 0.49805,-10.14063 3.48954,-8.27815 7.81861,-12.59433 14.18164,-18.80664 2.18508,-2.13333 4.24151,-3.4869 6.99609,-5.32617 4.02671,-2.6887 9.71851,-5.72667 20.91993,-8.05859 4.84997,-1.00969 11.72105,-2.44937 16.33203,-2.32422 z"
       sodipodi:nodetypes="ssssssssssssssssssss" />
    <path
       style="opacity:1;fill:#ffffff;fill-opacity:1;stroke:#000000"
       d="m 365.34557,339.76757 8.78051,-37.79437 45.81136,-66.04471 49.24721,-38.17613 54.21011,-20.61511 68.33527,-4.19938 62.99062,24.05097 47.72016,59.55476 6.48994,97.34913 -51.91954,124.45419 -136.67054,74.82522 -132.85294,-42.37551 -29.77738,-75.58874 c -3.32259,-33.16752 -2.24227,-65.31898 7.63522,-95.44032 z"
       id="path52"
       sodipodi:nodetypes="cccccccccccccc"
       inkscape:label="0 base"
       clip-path="url(#clipPath54)" />
    <path
       id="path10"
       style="opacity:1;fill:#000000;stroke:#000000;stroke-width:1.00952"
       inkscape:label="0"
       d="M 580.01367 169.34961 C 561.88224 168.46437 541.47172 170.61009 520.98438 175.0625 C 499.37326 179.75913 464.40537 196.85362 445.47852 210.125 C 400.0837 241.95553 360.49588 300.0789 354.4375 366.21484 C 353.53314 376.08719 352.90889 384.26695 352.86719 394.17773 C 352.68579 437.32218 360.97848 480.85084 377.09961 502.15625 C 397.6456 529.30948 407.3123 542.08639 451.93555 555.62305 C 515.74087 574.97868 573.81008 555.8989 634.63086 508.76562 C 644.27481 501.29201 661.21758 482.11995 674.65039 460.49805 C 687.5385 439.75289 697.05864 416.71873 700.13867 401.18164 C 702.73389 388.09014 707.17225 374.1753 708.99023 362.03516 C 717.6177 304.42239 709.77076 251.79311 687.72852 226.1582 C 675.35416 211.76695 661.4324 196.56744 644.61719 186.83984 C 624.58567 175.25161 601.0851 170.37839 580.01367 169.34961 z M 580.01367 176.2168 C 618.77432 178.0736 658.30294 198.79078 681.28516 232.80273 C 709.92731 275.19093 713.09941 334.27065 688.96875 398.20898 C 677.84586 427.68098 664.20398 444.37839 650.10742 461.17773 C 593.73821 528.35476 516.19172 544.36958 455.80273 529.08398 C 409.2747 517.30686 395.52526 499.42854 377.09375 469.45117 C 359.63685 441.05893 355.92304 412.08427 362.32031 361.24609 C 370.45851 296.57293 413.40472 240.28873 458.80078 209.05664 C 477.72815 196.03478 499.37268 186.43255 520.98438 181.82422 C 541.47229 177.45552 561.88174 175.3482 580.01367 176.2168 z " />
    <path
       id="path8"
       style="opacity:1;fill:#000000;stroke:#000000;fill-opacity:1"
       inkscape:label="Circulo interior 0"
       d="M 552.11523 256.54297 C 548.6705 256.61681 545.21721 256.9234 541.79297 257.44922 C 501.67468 263.60968 463.52436 297.89607 451.00195 357.07422 C 446.11767 380.15625 448.50651 397.68246 452.90039 412.14453 C 458.87852 431.82101 470.76429 445.09439 493.44141 452.1875 C 532.50076 464.40476 585.01688 436.33434 606.36719 372.54688 C 618.26175 337.00999 616.03556 310.48806 610.05469 294.33984 C 599.90785 266.94359 576.22835 256.0261 552.11523 256.54297 z M 557.61719 284.22852 C 576.27058 285.67941 594.1338 297.10014 603.12305 313.29492 C 609.70706 325.15649 608.44837 345.77907 599.39453 371.20508 C 582.44676 418.79971 544.18686 451.39677 501.42773 445.41406 C 486.46905 443.32109 475.54509 437.19488 468.35156 426.52344 C 459.46755 413.34423 455.15521 395.8189 457.73633 373.06641 C 458.77265 363.93127 462.03907 356.25884 465.75 348.78711 C 470.60651 339.00881 475.33502 329.3809 482.77344 321.11914 C 502.91979 298.74285 526.2561 286.10783 549.59766 284.23242 C 552.27103 284.01763 554.95242 284.02125 557.61719 284.22852 z " />
    <path
       style="fill:#ffffff;fill-opacity:1;stroke:#000000"
       d="m 721.52887,473.00226 -30.5409,40.4667 19.85159,25.95977 117.58248,3.05409 33.59499,-45.81136 3.05409,-40.08494 -24.81448,-28.25033 40.08494,-48.48369 -49.62897,-25.57801 -66.04471,7.25347 -32.83147,18.32454 -17.56102,33.595 11.07108,39.32141 61.84533,25.57801 -19.46983,11.45284 z"
       id="path2"
       inkscape:label="0 base" />
    <path
       id="path1"
       style="fill:#000000;fill-opacity:1;stroke:#000000"
       inkscape:label="S exterior"
       d="M 806.08984 350.07422 C 786.56261 351.2748 767.89072 350.89308 738.51758 370.30859 C 729.93204 377.6934 721.54018 385.27295 716.94727 396.65039 C 712.20791 408.44487 709.30376 419.00182 712.74805 438.07031 C 713.68617 448.38096 719.25126 456.16967 725.72852 463.45898 C 735.09309 472.55192 750.04975 478.84834 767.53125 483.88281 C 750.72939 482.83344 735.54927 475.70165 720.76562 467.08398 L 685.64258 513.27734 L 689.8418 535.80273 C 712.89874 552.51255 743.47898 559.08221 778.2207 560.04297 C 818.29447 558.51985 838.61225 545.93339 853.42773 530.26562 C 874.23742 502.1098 871.15849 479.92745 868.125 457.73242 C 864.88428 449.55283 858.26301 444.19065 852.0918 438.45312 L 879.38672 400.4668 L 883.77734 376.99023 C 864.24754 360.55485 840.32486 349.269 806.08984 350.07422 z M 808.37891 358.0918 C 842.54088 359.74875 862.36968 368.09547 873.66016 380.42578 L 848.08203 415.73828 C 836.13183 406.82775 822.93932 401.71067 808.95312 400.6582 C 800.02008 400.35768 791.65471 400.58257 780.20117 403.30664 C 778.31305 403.9181 775.30943 405.81898 773.73828 409.21875 C 772.86352 413.40818 773.36144 414.40589 774.21289 416.31055 C 780.27722 420.72666 787.84433 422.78597 795.90625 424.70508 C 808.56318 427.38728 820.60018 430.99951 832.24023 435.20703 C 849.3905 445.53469 866.67727 455.75549 860.49023 484.45508 C 852.63915 512.13678 834.60825 522.00615 814.67773 528.54883 C 778.14945 537.73334 737.36005 538.48008 695.95117 513.66016 L 722.29297 476.82031 C 734.59164 482.22548 744.98605 487.94842 766.00391 491.90039 C 779.062 492.25829 791.47176 493.06652 805.51562 487.50977 C 808.48276 483.87877 811.73815 479.15736 808.37891 473.00195 C 805.83383 468.90673 796.99039 466.85677 794.44531 465.93945 C 755.53982 456.83018 736.46748 448.95923 727.06445 437.30664 C 717.62717 425.12786 718.40101 413.73459 722.10156 402.56641 C 733.60505 374.51683 771.07552 356.83084 808.37891 358.0918 z " />
    <text
       xml:space="preserve"
       style="font-style:italic;font-variant:normal;font-weight:normal;font-stretch:normal;font-size:175.357px;font-family:TangoSans;-inkscape-font-specification:'TangoSans Italic';text-align:center;writing-mode:lr-tb;direction:ltr;text-anchor:middle;fill:#000000;fill-opacity:1;stroke:#000000;stroke-width:3.81016;stroke-dasharray:none"
       x="403.92224"
       y="762.36926"
       id="text2-2"
       transform="scale(1.0749459,0.93027938)"
       inkscape:label="Texto bajo"><tspan
         sodipodi:role="line"
         id="tspan2-3"
         x="403.92224"
         y="762.36926"
         style="fill:#000000;stroke-width:3.81016;stroke-dasharray:none">NINETEES</tspan></text>
    <text
       xml:space="preserve"
       style="font-style:italic;font-variant:normal;font-weight:normal;font-stretch:normal;font-size:175.357px;font-family:TangoSans;-inkscape-font-specification:'TangoSans Italic';text-align:center;writing-mode:lr-tb;direction:ltr;text-anchor:middle;fill:#6b7aff;fill-opacity:1;stroke:#000000;stroke-width:3.81016;stroke-dasharray:none"
       x="405.44492"
       y="755.98767"
       id="text2"
       transform="scale(1.0749459,0.93027938)"
       inkscape:label="Texto alto"><tspan
         sodipodi:role="line"
         id="tspan2"
         x="405.44492"
         y="755.98767"
         style="stroke-width:3.81016;stroke-dasharray:none">NINETEES</tspan></text>
  </g>
</svg>
